<svg width="17" height="17" viewBox="0 0 17 17" fill="none" xmlns="http://www.w3.org/2000/svg">
<circle cx="8.5" cy="8.5" r="7.75" fill="#32C8C8" stroke="#64F0F0" stroke-width="1.5"/>
<path fill-rule="evenodd" clip-rule="evenodd" d="M9.00252 5.16975V4.33367C9.00252 4.05014 9.37789 3.8963 9.62287 4.07944L11.9289 5.80359C12.1068 5.93662 12.1068 6.17901 11.9289 6.31204L9.62287 8.03621C9.37789 8.21933 9.00252 8.06547 9.00252 7.78195V6.94588C7.139 6.94588 6.13931 6.94588 4.40175 8.18425C4.23373 8.304 3.98191 8.1993 4.00103 8.00934C4.2867 5.16975 7.09647 5.16975 9.00252 5.16975ZM7.99749 11.8303V12.6663C7.99749 12.9498 7.62211 13.1037 7.37715 12.9206L5.07116 11.1964C4.89324 11.0634 4.89324 10.821 5.07116 10.688L7.37715 8.96379C7.62211 8.78067 7.99749 8.93453 7.99749 9.21805V10.0541C9.86101 10.0541 10.8607 10.0541 12.5983 8.81575C12.7663 8.696 13.0181 8.8007 12.999 8.99066C12.7133 11.8303 9.90353 11.8303 7.99749 11.8303Z" fill="white"/>
</svg>
