<svg width="17" height="17" viewBox="0 0 17 17" fill="none" xmlns="http://www.w3.org/2000/svg">
<circle cx="8.5" cy="8.5" r="7.75" fill="#32C8C8" stroke="#64F0F0" stroke-width="1.5"/>
<path d="M4.96751 6.90247C4.4334 6.90317 4.00071 7.33596 4 7.86998V11.7399C4 12.2742 4.43314 12.7074 4.96751 12.7074C5.5018 12.7074 5.93494 12.2742 5.93494 11.7399V7.86998C5.93432 7.33596 5.50154 6.90317 4.96751 6.90247Z" fill="white"/>
<path d="M12.7194 7.33612C12.49 7.061 12.1502 6.9021 11.792 6.90245H10.3682C10.5869 6.00677 10.4787 5.10587 10.0707 4.53952C9.84922 4.20744 9.47853 4.00576 9.0795 4C8.515 4 8.515 4.52295 8.515 4.90462C8.515 5.65716 8.35388 6.90245 6.60221 7.39325C6.49521 7.42133 6.4201 7.51743 6.41895 7.62806V11.4994C6.41974 12.1662 6.96005 12.7066 7.62685 12.7074H11.176C11.7597 12.7074 12.2598 12.2899 12.3642 11.7157L12.9806 8.32622C13.0449 7.97378 12.9493 7.61097 12.7194 7.33612Z" fill="white"/>
</svg>
